<?xml version="1.0" encoding="UTF-8" standalone="no"?>
<!-- Created with Inkscape (http://www.inkscape.org/) -->

<svg
   width="210mm"
   height="147mm"
   viewBox="0 0 210 147"
   version="1.1"
   id="svg1"
   inkscape:version="1.4.2 (f4327f4, 2025-05-13)"
   sodipodi:docname="67.svg"
   xmlns:inkscape="http://www.inkscape.org/namespaces/inkscape"
   xmlns:sodipodi="http://sodipodi.sourceforge.net/DTD/sodipodi-0.dtd"
   xmlns="http://www.w3.org/2000/svg"
   xmlns:svg="http://www.w3.org/2000/svg">
  <sodipodi:namedview
     id="namedview1"
     pagecolor="#ffffff"
     bordercolor="#000000"
     borderopacity="0.25"
     inkscape:showpageshadow="2"
     inkscape:pageopacity="0.0"
     inkscape:pagecheckerboard="0"
     inkscape:deskcolor="#d1d1d1"
     inkscape:document-units="mm"
     inkscape:zoom="1.07"
     inkscape:cx="335.04673"
     inkscape:cy="177.1028"
     inkscape:window-width="1920"
     inkscape:window-height="1057"
     inkscape:window-x="-8"
     inkscape:window-y="-8"
     inkscape:window-maximized="1"
     inkscape:current-layer="layer1" />
  <defs
     id="defs1">
    <rect
       x="80.373832"
       y="361.68224"
       width="328.03738"
       height="46.728972"
       id="rect5" />
    <rect
       x="213.08411"
       y="362.61682"
       width="195.3271"
       height="148.59813"
       id="rect4" />
  </defs>
  <rect
     style="fill:#ff5555;fill-opacity:0.995033;stroke-width:0.264999;stroke-dasharray:none"
     id="rect6"
     width="209.93575"
     height="147.62265"
     x="0"
     y="-0.24727415" />
  <g
     inkscape:label="Ebene 1"
     inkscape:groupmode="layer"
     id="layer1">
    <path
       style="fill:#b3b3b3;fill-opacity:0.995033;stroke-width:0.264999;stroke-dasharray:none"
       d="m 152.81542,0 24.23286,11.37461 10.88007,16.567369 10.88006,5.934577 5.44003,8.654595 0.24727,10.880064 2.47275,18.792835 -10.13825,21.760124 5.44004,15.083726 5.44003,8.65459 0.24727,5.19276 -19.78193,13.10553 -22.99649,2.72001 -20.02921,4.20366 -12.36371,1.48365 -16.56736,-6.18185 -30.661996,0.24727 -37.091123,2.47274 -30.661993,0.24727 -7.665498,-9.39641 7.665498,-11.12734 -3.214564,-6.6764 L 5.9345795,103.85514 1.4836448,87.287771 0,78.138628 0.74182242,31.898365 5.4400312,22.007398 3.9563862,13.847352 1.9781931,8.4073208 17.30919,10.385514 20.771028,7.4182242 39.811137,3.2145639 55.142132,2.4727414 63.549455,0.74182242 78.88045,5.4400312 104.59696,2.2254673 Z"
       id="path6" />
    <text
       xml:space="preserve"
       style="font-size:3.175px;text-align:start;writing-mode:lr-tb;direction:ltr;text-anchor:start;white-space:pre;inline-size:57.7172;fill:#800000;fill-opacity:0.951987;stroke-width:0.265;stroke-dasharray:none"
       x="80.074265"
       y="73.933601"
       id="text2"
       transform="matrix(5.1392258,0,0,20.681805,-395.95158,-1460.4013)"><tspan
         x="80.074265"
         y="73.933601"
         id="tspan1">50% YEARLY</tspan></text>
    <text
       xml:space="preserve"
       style="font-size:42.0086px;text-align:start;writing-mode:lr-tb;direction:ltr;text-anchor:start;fill:#a41017;fill-opacity:0.99503309;stroke-width:3.50622;stroke-dasharray:none"
       x="119.17619"
       y="71.2062"
       id="text3"
       transform="scale(0.54054363,1.8499894)"><tspan
         sodipodi:role="line"
         id="tspan3"
         style="stroke-width:3.50623;fill:#a41017;fill-opacity:0.99503309"
         x="119.17619"
         y="71.2062">70 % DAILY</tspan></text>
  </g>
</svg>
